<svg width="44" height="44" viewBox="0 0 44 44" fill="none" xmlns="http://www.w3.org/2000/svg">
<path d="M37.6494 35.0676L31.4685 28.9049C33.4627 26.3643 34.5448 23.2269 34.5408 19.9971C34.5408 17.1207 33.6878 14.3089 32.0898 11.9172C30.4917 9.5256 28.2204 7.66155 25.5629 6.56079C22.9055 5.46004 19.9813 5.17204 17.1602 5.7332C14.339 6.29435 11.7477 7.67947 9.71375 9.71339C7.67983 11.7473 6.29471 14.3387 5.73355 17.1598C5.1724 19.981 5.4604 22.9051 6.56115 25.5626C7.6619 28.22 9.52596 30.4914 11.9176 32.0894C14.3092 33.6875 17.121 34.5404 19.9974 34.5404C23.2273 34.5444 26.3646 33.4624 28.9052 31.4681L35.068 37.6491C35.237 37.8194 35.438 37.9547 35.6596 38.047C35.8811 38.1393 36.1187 38.1868 36.3587 38.1868C36.5987 38.1868 36.8363 38.1393 37.0578 38.047C37.2794 37.9547 37.4804 37.8194 37.6494 37.6491C37.8198 37.4801 37.955 37.279 38.0473 37.0575C38.1396 36.8359 38.1871 36.5983 38.1871 36.3583C38.1871 36.1183 38.1396 35.8807 38.0473 35.6592C37.955 35.4377 37.8198 35.2366 37.6494 35.0676ZM9.08994 19.9971C9.08994 17.8398 9.72965 15.7309 10.9282 13.9372C12.1267 12.1435 13.8302 10.7454 15.8233 9.91987C17.8164 9.0943 20.0095 8.8783 22.1254 9.29917C24.2412 9.72004 26.1848 10.7589 27.7102 12.2843C29.2356 13.8098 30.2745 15.7533 30.6954 17.8691C31.1162 19.985 30.9002 22.1781 30.0747 24.1712C29.2491 26.1643 27.8511 27.8678 26.0573 29.0663C24.2636 30.2649 22.1547 30.9046 19.9974 30.9046C17.1046 30.9046 14.3302 29.7554 12.2847 27.7099C10.2391 25.6643 9.08994 22.8899 9.08994 19.9971Z" fill="white"/>
</svg>
